<svg xmlns="http://www.w3.org/2000/svg" viewBox="-0.5 -0.5 24 24" id="Money-Payments-Accounting-Calculator--Streamline-Pixel.svg" height="24" width="24"><desc>Money Payments Accounting Calculator Streamline Icon: https://streamlinehq.com</desc><title>money-payments-accounting-calculator</title><g><path d="M18.61921875 2.1921874999999997h1.0925v18.615624999999998h-1.0925Z" fill="#000000" stroke-width="1"></path><path d="M17.52671875 20.8078125h1.0925v1.0996875h-1.0925Z" fill="#000000" stroke-width="1"></path><path d="M17.52671875 1.0925h1.0925v1.0996875h-1.0925Z" fill="#000000" stroke-width="1"></path><path d="M9.85765625 17.523125h7.6690625v3.2846875000000004h-7.6690625Z" fill="#000000" stroke-width="1"></path><path d="M5.47328125 21.9075h12.0534375V23H5.47328125Z" fill="#000000" stroke-width="1"></path><path d="M17.52671875 13.145937499999999h-3.2846875000000004v3.2846875000000004h3.2846875000000004Zm-1.0996875 2.185h-1.0925v-1.0925h1.0925Z" fill="#000000" stroke-width="1"></path><path d="M17.52671875 8.7615625h-3.2846875000000004v3.2846875000000004h3.2846875000000004Zm-1.0996875 2.1921874999999997h-1.0925v-1.0996875h1.0925Z" fill="#000000" stroke-width="1"></path><path d="M5.47328125 2.1921874999999997v5.476875h12.0534375V2.1921874999999997Zm10.95375 4.3771875H6.572968749999999V3.2846875000000004h9.854062500000001Z" fill="#000000" stroke-width="1"></path><path d="M14.24203125 4.3843749999999995h1.0925v1.0925h-1.0925Z" fill="#000000" stroke-width="1"></path><path d="M12.04984375 4.3843749999999995h1.0925v1.0925h-1.0925Z" fill="#000000" stroke-width="1"></path><path d="M13.14234375 13.145937499999999h-3.2846875000000004v3.2846875000000004h3.2846875000000004Zm-1.0925 2.185h-1.0996875v-1.0925h1.0996875Z" fill="#000000" stroke-width="1"></path><path d="M13.14234375 8.7615625h-3.2846875000000004v3.2846875000000004h3.2846875000000004Zm-1.0925 2.1921874999999997h-1.0996875v-1.0996875h1.0996875Z" fill="#000000" stroke-width="1"></path><path d="M8.768749999999999 20.8078125v-3.2846875000000004H5.47328125v3.2846875000000004Zm-2.1921874999999997 -2.185h1.0925v1.0925H6.572968749999999Z" fill="#000000" stroke-width="1"></path><path d="M8.768749999999999 13.145937499999999H5.47328125v3.2846875000000004H8.768749999999999Zm-1.0996875 2.185H6.572968749999999v-1.0925h1.0925Z" fill="#000000" stroke-width="1"></path><path d="M8.768749999999999 8.7615625H5.47328125v3.2846875000000004H8.768749999999999Zm-1.0996875 2.1921874999999997H6.572968749999999v-1.0996875h1.0925Z" fill="#000000" stroke-width="1"></path><path d="M5.47328125 0h12.0534375v1.0925H5.47328125Z" fill="#000000" stroke-width="1"></path><path d="M4.38078125 20.8078125h1.0925v1.0996875h-1.0925Z" fill="#000000" stroke-width="1"></path><path d="M4.38078125 1.0925h1.0925v1.0996875h-1.0925Z" fill="#000000" stroke-width="1"></path><path d="M3.2882812500000003 2.1921874999999997h1.0925v18.615624999999998h-1.0925Z" fill="#000000" stroke-width="1"></path></g></svg>